<?xml version="1.0" encoding="utf-8"?>
<!-- Generator: Adobe Illustrator 23.0.2, SVG Export Plug-In . SVG Version: 6.00 Build 0)  -->
<svg version="1.1" id="Capa_1" xmlns="http://www.w3.org/2000/svg" xmlns:xlink="http://www.w3.org/1999/xlink" x="0px" y="0px"
	 viewBox="0 0 22.1 37.3" style="enable-background:new 0 0 22.1 37.3;" xml:space="preserve">
<g>
	<path d="M10.6,36.8V0.4c0-0.2,0.2-0.4,0.4-0.4c0.2,0,0.4,0.2,0.4,0.4v36.4c0,0.2-0.2,0.4-0.4,0.4C10.8,37.3,10.6,37.1,10.6,36.8z"
		/>
	<path d="M0,26.2c0-0.1,0-0.2,0.1-0.3c0.2-0.2,0.4-0.2,0.6,0l10.3,10.3l10.3-10.3c0.2-0.2,0.4-0.2,0.6,0c0.2,0.2,0.2,0.4,0,0.6
		L11.4,37.1c-0.1,0.1-0.2,0.1-0.3,0.1s-0.2,0-0.3-0.1L0.1,26.5C0,26.4,0,26.3,0,26.2z"/>
</g>
</svg>
