<?xml version="1.0" encoding="utf-8"?>
<!-- Generator: Adobe Illustrator 23.0.2, SVG Export Plug-In . SVG Version: 6.00 Build 0)  -->
<svg version="1.1" id="Capa_1" xmlns="http://www.w3.org/2000/svg" xmlns:xlink="http://www.w3.org/1999/xlink" x="0px" y="0px"
	 viewBox="0 0 27.7 22.1" style="enable-background:new 0 0 27.7 22.1;" xml:space="preserve">
<g>
	<path d="M27.3,11.5H0.4c-0.2,0-0.4-0.2-0.4-0.4c0-0.2,0.2-0.4,0.4-0.4h26.9c0.2,0,0.4,0.2,0.4,0.4C27.7,11.3,27.5,11.5,27.3,11.5z"
		/>
	<path d="M16.6,22.1c-0.1,0-0.2,0-0.3-0.1c-0.2-0.2-0.2-0.4,0-0.6l10.3-10.3L16.3,0.7c-0.2-0.2-0.2-0.4,0-0.6s0.4-0.2,0.6,0
		l10.6,10.6c0.1,0.1,0.1,0.2,0.1,0.3s0,0.2-0.1,0.3L16.9,22C16.9,22.1,16.8,22.1,16.6,22.1z"/>
</g>
</svg>
