<?xml version="1.0" encoding="utf-8"?>
<!-- Generator: Adobe Illustrator 23.0.2, SVG Export Plug-In . SVG Version: 6.00 Build 0)  -->
<svg version="1.1" id="レイヤー_1" xmlns="http://www.w3.org/2000/svg" xmlns:xlink="http://www.w3.org/1999/xlink" x="0px"
	 y="0px" viewBox="0 0 200 92.3" style="enable-background:new 0 0 200 92.3;" xml:space="preserve">
<style type="text/css">
	.st0{fill:#FFFFFF;}
</style>
<title>logo</title>
<path class="st0" d="M0,27.5h0.6c0.3,1.7,0.8,3.3,1.5,4.9c0.5,1.2,1.2,2.3,2,3.3c0.7,0.8,1.5,1.5,2.3,2c0.8,0.4,1.6,0.8,2.5,1
	c0.8,0.2,1.6,0.3,2.4,0.4c0.8,0,1.5,0,2.2,0c1.6,0.1,3.2-0.2,4.7-0.9c1.1-0.5,2.1-1.2,2.9-2.2c0.7-0.8,1.2-1.8,1.5-2.8
	c0.3-0.9,0.4-1.9,0.4-2.8c0-1.1-0.2-2.2-0.7-3.2c-0.4-0.9-1-1.6-1.8-2.3c-0.7-0.6-1.5-1.1-2.3-1.5c-0.8-0.4-1.6-0.7-2.4-0.9
	l-6.1-1.9C7.2,20,5,18.8,3.1,17.1c-1.5-1.6-2.3-3.7-2.2-5.9c0-1.5,0.3-3,0.8-4.5c0.5-1.3,1.4-2.6,2.4-3.6c1.1-1,2.3-1.8,3.7-2.3
	C9.4,0.3,11,0,12.6,0c1.1,0,2.1,0.1,3.1,0.3c0.7,0.2,1.5,0.4,2.2,0.7l1.6,0.7C20,2,20.5,2.1,21,2.1c0.3,0,0.6,0,0.9-0.2
	c0.3-0.3,0.5-0.6,0.7-0.9h0.8v9.7h-0.6c-0.2-1.3-0.6-2.5-1.1-3.7c-0.5-1.2-1.2-2.2-2-3.1c-0.8-0.9-1.9-1.7-3-2.2
	c-1.3-0.6-2.6-0.9-4-0.8c-1,0-1.9,0.1-2.8,0.4c-1,0.2-2,0.6-2.9,1.2C6,2.9,5.2,3.6,4.7,4.6C4,5.6,3.7,6.8,3.8,8.1c0,1,0.2,2,0.7,2.9
	c0.5,0.8,1.1,1.5,1.8,2c0.8,0.6,1.6,1,2.5,1.4c0.9,0.4,1.8,0.7,2.8,1l6.5,2c0.7,0.2,1.5,0.5,2.6,0.9c1.1,0.4,2.1,0.9,3,1.6
	c1,0.8,1.9,1.7,2.5,2.8c0.7,1.4,1.1,2.9,1,4.5c0,1.6-0.3,3.3-0.9,4.8c-0.6,1.5-1.5,2.9-2.7,4c-1.2,1.2-2.7,2.1-4.3,2.8
	c-1.8,0.7-3.7,1-5.7,1c-0.8,0-1.4,0-2,0c-0.5,0-1.1-0.1-1.6-0.1c-0.5-0.1-1-0.1-1.5-0.2c-0.6-0.1-1.1-0.2-1.7-0.4
	c-0.7-0.2-1.5-0.5-2.3-0.8c-0.7-0.3-1.4-0.4-2.1-0.4c-0.4,0-0.8,0.1-1.1,0.3c-0.2,0.2-0.4,0.5-0.5,0.9H0V27.5z"/>
<path class="st0" d="M162.7,38.2h6.1V0.8h-6.1V0h11.7L193,29.9h0.1V0.8H187V0h13v0.8h-6.1v39h-1.1L169.7,3h-0.1v35.2h6.1V39h-13
	L162.7,38.2z"/>
<rect x="37.1" y="19.5" class="st0" width="115.7" height="0.8"/>
<path class="st0" d="M109.8,68.5v-1c0.3,0.2,0.5,0.3,0.8,0.5c0.2,0.1,0.5,0.2,0.7,0.2c0.2,0,0.4,0,0.5-0.1c0.1-0.1,0.2-0.2,0.2-0.4
	c0-0.1,0-0.3-0.1-0.4c-0.2-0.2-0.4-0.3-0.6-0.4c-0.5-0.2-0.9-0.5-1.2-0.9c-0.2-0.2-0.3-0.5-0.3-0.8c0-0.4,0.1-0.7,0.4-0.9
	c0.3-0.2,0.7-0.4,1.1-0.4c0.5,0,1,0.2,1.5,0.4v1c-0.4-0.3-0.9-0.5-1.4-0.5c-0.2,0-0.3,0-0.5,0.1c-0.1,0.1-0.2,0.2-0.2,0.3
	c0,0.1,0.1,0.2,0.2,0.3c0.2,0.1,0.4,0.3,0.5,0.4l0.3,0.2c0.8,0.5,1.2,1,1.2,1.5c0,0.4-0.2,0.8-0.5,1c-0.3,0.3-0.8,0.4-1.2,0.4
	c-0.3,0-0.5,0-0.8-0.1C110.4,68.8,110.1,68.6,109.8,68.5z"/>
<path class="st0" d="M119.8,63.9c0.7,0,1.4,0.2,1.8,0.7c0.5,0.5,0.8,1.1,0.7,1.8c0,0.7-0.3,1.3-0.8,1.8c-0.5,0.5-1.2,0.7-1.9,0.7
	c-0.7,0-1.3-0.2-1.8-0.7c-1-1-1-2.5,0-3.5c0,0,0,0,0,0C118.4,64.2,119.1,63.9,119.8,63.9z M119.8,64.8c-0.9,0-1.6,0.6-1.6,1.5
	c0,0,0,0.1,0,0.1c0,0.4,0.1,0.8,0.5,1.1c0.3,0.3,0.7,0.5,1.2,0.4c0.4,0,0.8-0.1,1.2-0.4c0.6-0.6,0.6-1.7,0-2.3
	C120.7,64.9,120.2,64.8,119.8,64.8L119.8,64.8z"/>
<path class="st0" d="M129.1,63.9c0.7,0,1.4,0.2,1.8,0.7c0.5,0.5,0.8,1.1,0.7,1.8c0,0.7-0.3,1.3-0.7,1.8c-0.5,0.5-1.2,0.7-1.9,0.7
	c-0.7,0-1.3-0.2-1.8-0.7c-1-1-1-2.6,0-3.5c0,0,0,0,0,0C127.7,64.2,128.4,63.9,129.1,63.9z M129,64.8c-0.4,0-0.8,0.2-1.1,0.5
	c-0.3,0.3-0.5,0.7-0.5,1.2c0,0.4,0.1,0.8,0.5,1.1c0.7,0.6,1.7,0.6,2.3,0c0.3-0.3,0.5-0.7,0.5-1.1c0-0.4-0.2-0.9-0.5-1.1
	C129.9,64.9,129.4,64.8,129,64.8z"/>
<path class="st0" d="M137,64v0.6c0.4-0.4,0.9-0.7,1.5-0.7c0.3,0,0.6,0.1,0.8,0.2c0.3,0.2,0.5,0.4,0.6,0.6c0.2,0.4,0.2,0.9,0.2,1.3
	v2.8h-1V66c0-0.4-0.1-0.7-0.2-1.1c-0.2-0.2-0.5-0.3-0.8-0.3c-0.5,0-0.9,0.3-1.2,0.7v3.5h-1v-4.9L137,64z"/>
<path class="st0" d="M144.1,65.8h8.5v0.5h-8.5V65.8z"/>
<path class="st0" d="M113.3,82.5h1v7.4h-2.1c-0.6,0-1.3-0.2-1.7-0.7c-0.4-0.5-0.7-1.2-0.6-1.8c0-0.7,0.2-1.3,0.7-1.8
	c0.5-0.5,1.1-0.7,1.7-0.7c0.4,0,0.7,0.1,1.1,0.2L113.3,82.5z M113.3,89V86c-0.3-0.1-0.6-0.2-0.9-0.2c-0.4,0-0.9,0.1-1.1,0.5
	c-0.3,0.4-0.5,0.8-0.4,1.3c0,0.4,0.1,0.8,0.4,1.2c0.1,0.1,0.3,0.3,0.5,0.3c0.3,0.1,0.6,0.1,0.9,0.1L113.3,89z"/>
<path class="st0" d="M123.1,87.5h-3.4c0,0.4,0.2,0.8,0.5,1.1c0.3,0.3,0.7,0.4,1.1,0.4c0.6,0,1.2-0.2,1.8-0.6v0.9
	c-0.3,0.2-0.6,0.3-0.9,0.4c-0.3,0.1-0.7,0.1-1,0.1c-0.5,0-0.9-0.1-1.3-0.3c-0.3-0.2-0.6-0.5-0.8-0.9c-0.2-0.4-0.3-0.8-0.3-1.3
	c0-0.7,0.2-1.3,0.6-1.8c0.4-0.5,1-0.7,1.6-0.7c0.6,0,1.2,0.2,1.5,0.7c0.4,0.5,0.6,1.2,0.6,1.8L123.1,87.5z M119.7,86.9h2.5
	c0-0.3-0.1-0.6-0.3-0.9c-0.2-0.2-0.5-0.3-0.8-0.3c-0.3,0-0.6,0.1-0.8,0.3C119.9,86.3,119.7,86.6,119.7,86.9L119.7,86.9z"/>
<path class="st0" d="M127.2,89.5v-1c0.3,0.2,0.5,0.3,0.8,0.5c0.2,0.1,0.5,0.2,0.7,0.2c0.2,0,0.4,0,0.5-0.1c0.1-0.1,0.2-0.2,0.2-0.4
	c0-0.1,0-0.3-0.1-0.4c-0.2-0.2-0.4-0.3-0.6-0.4c-0.5-0.2-0.9-0.5-1.2-0.9c-0.2-0.2-0.3-0.5-0.3-0.8c0-0.4,0.1-0.7,0.4-0.9
	c0.3-0.3,0.7-0.4,1.1-0.4c0.5,0,1,0.1,1.5,0.4v1c-0.4-0.3-0.9-0.5-1.4-0.5c-0.2,0-0.3,0-0.5,0.1c-0.1,0.1-0.2,0.2-0.2,0.3
	c0,0.1,0.1,0.2,0.2,0.3c0.2,0.1,0.4,0.3,0.5,0.4l0.3,0.2c0.8,0.5,1.2,1,1.2,1.5c0,0.4-0.2,0.8-0.5,1c-0.3,0.3-0.8,0.4-1.2,0.4
	c-0.3,0-0.5,0-0.8-0.1C127.8,89.8,127.5,89.7,127.2,89.5z"/>
<path class="st0" d="M135.4,83c0.1,0,0.3,0.1,0.4,0.2c0.1,0.1,0.2,0.2,0.2,0.4c0,0.2-0.1,0.3-0.2,0.4c-0.1,0.1-0.2,0.2-0.4,0.2
	c-0.3,0-0.6-0.3-0.6-0.6c0-0.1,0.1-0.3,0.2-0.4C135.1,83,135.3,83,135.4,83z M135,85h1v4.9h-1V85z"/>
<path class="st0" d="M140.3,86.7c0-0.5,0.2-0.9,0.6-1.2c0.5-0.3,1-0.5,1.6-0.5h2v0.8h-1c0.2,0.2,0.3,0.3,0.4,0.5
	c0.1,0.2,0.1,0.4,0.1,0.5c0,0.3-0.1,0.5-0.2,0.8c-0.1,0.2-0.3,0.4-0.6,0.6c-0.4,0.2-0.7,0.3-1.1,0.3c-0.4,0-0.5,0.2-0.5,0.4
	c0,0.1,0.1,0.2,0.2,0.3c0.2,0.1,0.5,0.2,0.7,0.2c0.4,0.1,0.8,0.2,1.2,0.3c0.2,0.1,0.3,0.2,0.5,0.3c0.2,0.2,0.4,0.6,0.3,0.9
	c0,0.5-0.2,0.9-0.6,1.1c-0.5,0.3-1.1,0.4-1.7,0.4c-0.6,0-1.2-0.1-1.7-0.4c-0.4-0.2-0.6-0.7-0.6-1.1c0-0.7,0.4-1.1,1.2-1.3
	c-0.3-0.2-0.5-0.4-0.5-0.6c0-0.2,0.1-0.3,0.2-0.4c0.2-0.1,0.4-0.2,0.6-0.3C140.7,88,140.3,87.4,140.3,86.7z M141.9,90.1
	c-0.3,0-0.6,0.1-0.8,0.2c-0.2,0.1-0.3,0.3-0.3,0.5c0,0.5,0.5,0.8,1.4,0.8c0.3,0,0.7,0,1-0.2c0.2-0.1,0.3-0.3,0.3-0.5
	c0-0.2-0.2-0.4-0.4-0.5C142.7,90.2,142.3,90.1,141.9,90.1L141.9,90.1z M142.1,85.8c-0.2,0-0.5,0.1-0.7,0.3c-0.2,0.2-0.3,0.4-0.3,0.6
	c0,0.2,0.1,0.5,0.3,0.6c0.2,0.2,0.4,0.2,0.7,0.2c0.2,0,0.5-0.1,0.7-0.2c0.2-0.2,0.3-0.4,0.3-0.6c0-0.2-0.1-0.5-0.3-0.6
	C142.6,85.9,142.4,85.8,142.1,85.8L142.1,85.8z"/>
<path class="st0" d="M149.5,85v0.6c0.4-0.4,0.9-0.7,1.5-0.7c0.3,0,0.6,0.1,0.8,0.2c0.3,0.1,0.5,0.4,0.6,0.6c0.2,0.4,0.2,0.9,0.2,1.3
	v2.8h-1v-2.8c0-0.4,0-0.7-0.2-1.1c-0.2-0.2-0.5-0.4-0.8-0.3c-0.5,0-0.9,0.3-1.2,0.7v3.5h-1V85H149.5z"/>
</svg>
