<svg id="レイヤー_1" data-name="レイヤー 1" xmlns="http://www.w3.org/2000/svg" viewBox="0 0 200 92.35"><defs><style>.cls-1{fill:#202020;}</style></defs><title>logo</title><path class="cls-1" d="M584,342.71h.59a21.14,21.14,0,0,0,1.52,4.86,14.28,14.28,0,0,0,2,3.26,9.16,9.16,0,0,0,2.35,2,10.14,10.14,0,0,0,2.49,1,11.67,11.67,0,0,0,2.4.37c.76,0,1.48.05,2.16.05a11,11,0,0,0,4.65-.85,8.08,8.08,0,0,0,2.88-2.16,7.91,7.91,0,0,0,1.5-2.83,10.64,10.64,0,0,0,.42-2.81,6.9,6.9,0,0,0-.69-3.2,7.81,7.81,0,0,0-1.76-2.27,10,10,0,0,0-2.33-1.52,15.82,15.82,0,0,0-2.37-.91l-6.14-1.87a15.72,15.72,0,0,1-6.54-3.52,7.89,7.89,0,0,1-2.22-5.88,11.45,11.45,0,0,1,.85-4.45,10.44,10.44,0,0,1,2.41-3.56,11.28,11.28,0,0,1,3.71-2.34,12.7,12.7,0,0,1,4.72-.86,13.1,13.1,0,0,1,3.13.32,14.73,14.73,0,0,1,2.16.72l1.63.72a3.48,3.48,0,0,0,1.47.32,1.67,1.67,0,0,0,.93-.18,3.86,3.86,0,0,0,.67-.94h.75v9.67h-.64a16,16,0,0,0-1.1-3.71,11.28,11.28,0,0,0-2-3.15,9.33,9.33,0,0,0-3-2.19,9.12,9.12,0,0,0-4-.83,12.61,12.61,0,0,0-2.83.35,8.89,8.89,0,0,0-2.88,1.2,7.19,7.19,0,0,0-2.22,2.24,6.54,6.54,0,0,0-.88,3.52,5.65,5.65,0,0,0,.7,2.91,6.71,6.71,0,0,0,1.79,2,10.45,10.45,0,0,0,2.45,1.39c.91.38,1.83.7,2.75,1l6.46,2c.68.21,1.53.5,2.57.85a11.7,11.7,0,0,1,3,1.6,9.34,9.34,0,0,1,2.51,2.83,8.68,8.68,0,0,1,1,4.49,12.49,12.49,0,0,1-.93,4.78,11.79,11.79,0,0,1-2.7,4,13.1,13.1,0,0,1-4.27,2.78,14.72,14.72,0,0,1-5.66,1c-.75,0-1.41,0-2,0a13.29,13.29,0,0,1-1.61-.13c-.5-.07-1-.15-1.49-.24a15.71,15.71,0,0,1-1.66-.4c-.71-.21-1.47-.46-2.29-.75a6.76,6.76,0,0,0-2.14-.42,1.42,1.42,0,0,0-1.09.32,2.56,2.56,0,0,0-.51.85H584Z" transform="translate(-584.01 -315.21)"/><path class="cls-1" d="M746.75,353.46h6.08V316h-6.08v-.77h11.72L777,345.07h.11V316H771v-.77h13V316h-6.08v39h-1.1l-23.07-36.77h-.11v35.24h6.08v.76h-13Z" transform="translate(-584.01 -315.21)"/><rect class="cls-1" x="37.07" y="19.51" width="115.72" height="0.77"/><path class="cls-1" d="M693.85,383.68v-1a4,4,0,0,0,.83.46,1.89,1.89,0,0,0,.72.18.91.91,0,0,0,.52-.15.42.42,0,0,0,.21-.35.45.45,0,0,0-.14-.35,2.88,2.88,0,0,0-.6-.41,3.94,3.94,0,0,1-1.22-.89,1.22,1.22,0,0,1-.29-.8,1.11,1.11,0,0,1,.43-.91,1.74,1.74,0,0,1,1.13-.36,3.22,3.22,0,0,1,1.47.4v1a2.92,2.92,0,0,0-1.41-.52.77.77,0,0,0-.45.12.37.37,0,0,0-.17.31.48.48,0,0,0,.15.33,3.37,3.37,0,0,0,.55.37l.35.19c.81.46,1.21,1,1.21,1.53a1.21,1.21,0,0,1-.46,1,1.9,1.9,0,0,1-1.21.38,3,3,0,0,1-.77-.09A5.31,5.31,0,0,1,693.85,383.68Z" transform="translate(-584.01 -315.21)"/><path class="cls-1" d="M703.8,379.15a2.57,2.57,0,0,1,1.85.71,2.43,2.43,0,0,1,.74,1.81,2.3,2.3,0,0,1-.75,1.75,2.66,2.66,0,0,1-1.88.69,2.54,2.54,0,0,1-1.83-.7,2.49,2.49,0,0,1,0-3.55A2.54,2.54,0,0,1,703.8,379.15Zm0,.86a1.54,1.54,0,0,0-1.58,1.62,1.51,1.51,0,0,0,.45,1.14,1.63,1.63,0,0,0,1.17.44,1.61,1.61,0,0,0,1.16-.44,1.65,1.65,0,0,0,0-2.3A1.67,1.67,0,0,0,703.75,380Z" transform="translate(-584.01 -315.21)"/><path class="cls-1" d="M713.08,379.15a2.57,2.57,0,0,1,1.85.71,2.42,2.42,0,0,1,.73,1.81,2.33,2.33,0,0,1-.74,1.75,2.68,2.68,0,0,1-1.88.69,2.56,2.56,0,0,1-1.84-.7,2.51,2.51,0,0,1,0-3.55A2.58,2.58,0,0,1,713.08,379.15ZM713,380a1.52,1.52,0,0,0-1.14.46,1.58,1.58,0,0,0-.45,1.16,1.48,1.48,0,0,0,.46,1.14,1.76,1.76,0,0,0,2.33,0,1.57,1.57,0,0,0,.45-1.15,1.51,1.51,0,0,0-.47-1.15A1.65,1.65,0,0,0,713,380Z" transform="translate(-584.01 -315.21)"/><path class="cls-1" d="M721,379.16v.62a1.93,1.93,0,0,1,1.46-.72,1.58,1.58,0,0,1,.85.24,1.54,1.54,0,0,1,.6.64,3.23,3.23,0,0,1,.2,1.3V384h-1v-2.78a1.89,1.89,0,0,0-.23-1.06.86.86,0,0,0-.76-.32,1.37,1.37,0,0,0-1.16.68V384h-1v-4.87Z" transform="translate(-584.01 -315.21)"/><path class="cls-1" d="M728.15,381h8.49v.54h-8.49Z" transform="translate(-584.01 -315.21)"/><path class="cls-1" d="M697.34,397.68h1v7.4h-2.06a2.27,2.27,0,0,1-1.72-.68,2.58,2.58,0,0,1-.64-1.84,2.45,2.45,0,0,1,.67-1.77,2.32,2.32,0,0,1,1.73-.69,3.16,3.16,0,0,1,1.06.21Zm0,6.57v-3.08a2,2,0,0,0-.92-.23,1.43,1.43,0,0,0-1.14.47,1.79,1.79,0,0,0-.43,1.27,1.65,1.65,0,0,0,.37,1.16,1.27,1.27,0,0,0,.47.33,3.58,3.58,0,0,0,.9.08Z" transform="translate(-584.01 -315.21)"/><path class="cls-1" d="M707.08,402.73h-3.43a1.62,1.62,0,0,0,.47,1.11,1.58,1.58,0,0,0,1.12.41,2.91,2.91,0,0,0,1.75-.59v.94a3.25,3.25,0,0,1-.88.43,3.86,3.86,0,0,1-1,.12,2.3,2.3,0,0,1-1.3-.33,2.33,2.33,0,0,1-.8-.9,2.71,2.71,0,0,1-.3-1.3,2.59,2.59,0,0,1,.63-1.81,2.08,2.08,0,0,1,1.64-.7,1.92,1.92,0,0,1,1.54.68,2.69,2.69,0,0,1,.58,1.82Zm-3.41-.58h2.46a1.36,1.36,0,0,0-.35-.89A1.09,1.09,0,0,0,705,401a1.17,1.17,0,0,0-.85.31A1.54,1.54,0,0,0,703.67,402.15Z" transform="translate(-584.01 -315.21)"/><path class="cls-1" d="M711.25,404.73v-1a4.09,4.09,0,0,0,.84.46,1.89,1.89,0,0,0,.72.18.91.91,0,0,0,.52-.15.42.42,0,0,0,.21-.35.45.45,0,0,0-.14-.35,2.88,2.88,0,0,0-.6-.41,4.16,4.16,0,0,1-1.23-.89,1.26,1.26,0,0,1-.28-.8,1.11,1.11,0,0,1,.43-.91,1.72,1.72,0,0,1,1.13-.36,3.15,3.15,0,0,1,1.46.4v1a2.86,2.86,0,0,0-1.4-.52.75.75,0,0,0-.45.12.35.35,0,0,0-.17.31.48.48,0,0,0,.15.33,3.37,3.37,0,0,0,.55.37l.34.19c.82.46,1.22,1,1.22,1.53a1.19,1.19,0,0,1-.47,1,1.8,1.8,0,0,1-1.2.38,3,3,0,0,1-.77-.09A5.76,5.76,0,0,1,711.25,404.73Z" transform="translate(-584.01 -315.21)"/><path class="cls-1" d="M719.44,398.16a.55.55,0,0,1,.4.16.52.52,0,0,1,.17.4.54.54,0,0,1-.17.41.56.56,0,0,1-.4.17.6.6,0,0,1-.57-.58.56.56,0,0,1,.17-.39A.58.58,0,0,1,719.44,398.16Zm-.48,2h1v4.87h-1Z" transform="translate(-584.01 -315.21)"/><path class="cls-1" d="M724.33,401.89a1.48,1.48,0,0,1,.57-1.23,2.45,2.45,0,0,1,1.56-.45h2V401h-1a2.1,2.1,0,0,1,.4.53,1.33,1.33,0,0,1,.11.54,1.48,1.48,0,0,1-.22.75,1.46,1.46,0,0,1-.56.57,3.5,3.5,0,0,1-1.12.31c-.36,0-.54.18-.54.38a.3.3,0,0,0,.2.27,3,3,0,0,0,.74.23,6.9,6.9,0,0,1,1.15.31,1.44,1.44,0,0,1,.46.31,1.18,1.18,0,0,1,.35.88,1.28,1.28,0,0,1-.61,1.11,3,3,0,0,1-1.65.41,3,3,0,0,1-1.67-.41,1.3,1.3,0,0,1-.62-1.12c0-.66.41-1.08,1.22-1.27-.32-.21-.48-.42-.48-.62a.56.56,0,0,1,.2-.43,1.38,1.38,0,0,1,.57-.28A1.6,1.6,0,0,1,724.33,401.89Zm1.59,3.42a1.4,1.4,0,0,0-.8.2.62.62,0,0,0-.31.53c0,.5.45.75,1.36.75a2.24,2.24,0,0,0,1-.18.6.6,0,0,0,.35-.54c0-.22-.15-.41-.44-.55A2.72,2.72,0,0,0,725.92,405.31Zm.22-4.27a.9.9,0,0,0-.66.27.82.82,0,0,0-.28.63.83.83,0,0,0,.27.63,1,1,0,0,0,.69.24,1,1,0,0,0,.68-.25.83.83,0,0,0,.27-.63.81.81,0,0,0-.28-.63A1,1,0,0,0,726.14,401Z" transform="translate(-584.01 -315.21)"/><path class="cls-1" d="M733.49,400.21v.62a1.93,1.93,0,0,1,1.47-.72,1.61,1.61,0,0,1,.85.24,1.46,1.46,0,0,1,.59.64,3,3,0,0,1,.21,1.3v2.79h-1V402.3a1.9,1.9,0,0,0-.22-1.06.87.87,0,0,0-.77-.32,1.38,1.38,0,0,0-1.16.68v3.48h-1v-4.87Z" transform="translate(-584.01 -315.21)"/></svg>